<svg width="100" height="16" viewBox="0 0 100 16" fill="none" xmlns="http://www.w3.org/2000/svg">
<g clip-path="url(#clip0_7_5)">
<path d="M92.1331 10.4964L94.8051 11.9918L94.208 8.98893L96.4559 6.90961L93.4153 6.54911L92.1331 3.76893V10.4964ZM92.1331 11.9383L87.6958 14.4222L88.6867 9.43436L84.9527 5.98162L90.0028 5.38268L92.1331 0.764771L94.2634 5.38268L99.3135 5.98162L95.5795 9.43436L96.5704 14.4222L92.1331 11.9383V11.9383Z" fill="#F1B90B"/>
</g>
<g clip-path="url(#clip1_7_5)">
<path d="M7.57614 11.9385L3.13879 14.4223L4.12969 9.43448L0.395729 5.98174L5.44586 5.3828L7.57614 0.764893L9.70641 5.3828L14.7565 5.98174L11.0226 9.43448L12.0135 14.4223L7.57614 11.9385Z" fill="#F1B90B"/>
</g>
<g clip-path="url(#clip2_7_5)">
<path d="M28.7156 11.9383L24.2783 14.4222L25.2692 9.43436L21.5352 5.98162L26.5854 5.38268L28.7156 0.764771L30.8459 5.38268L35.8961 5.98162L32.1621 9.43436L33.153 14.4222L28.7156 11.9383Z" fill="#F1B90B"/>
</g>
<g clip-path="url(#clip3_7_5)">
<path d="M49.8546 11.9383L45.4172 14.4222L46.4081 9.43436L42.6742 5.98162L47.7243 5.38268L49.8546 0.764771L51.9849 5.38268L57.035 5.98162L53.301 9.43436L54.2919 14.4222L49.8546 11.9383Z" fill="#F1B90B"/>
</g>
<g clip-path="url(#clip4_7_5)">
<path d="M70.9935 11.9383L66.5562 14.4222L67.5471 9.43436L63.8131 5.98162L68.8632 5.38268L70.9935 0.764771L73.1238 5.38268L78.1739 5.98162L74.44 9.43436L75.4309 14.4222L70.9935 11.9383Z" fill="#F1B90B"/>
</g>
<defs>
<clipPath id="clip0_7_5">
<rect width="15.0994" height="15.0994" fill="white" transform="translate(84.5832 0.450073)"/>
</clipPath>
<clipPath id="clip1_7_5">
<rect width="15.0994" height="15.0994" fill="white" transform="translate(0.0262756 0.450195)"/>
</clipPath>
<clipPath id="clip2_7_5">
<rect width="15.0994" height="15.0994" fill="white" transform="translate(21.1658 0.450073)"/>
</clipPath>
<clipPath id="clip3_7_5">
<rect width="15.0994" height="15.0994" fill="white" transform="translate(42.3047 0.450073)"/>
</clipPath>
<clipPath id="clip4_7_5">
<rect width="15.0994" height="15.0994" fill="white" transform="translate(63.4437 0.450073)"/>
</clipPath>
</defs>
</svg>
